<svg width="28" height="28" viewBox="0 0 28 28" fill="none" xmlns="http://www.w3.org/2000/svg">
<g id="&#240;&#159;&#166;&#134; icon &#34;wallet check&#34;">
<g id="Group">
<path id="Vector" d="M6.15818 27.4436C4.20752 27.4436 2.37437 26.381 1.38729 24.6544C0.858499 23.7851 0.576477 22.7588 0.576477 21.7083C0.576477 18.5449 3.07943 15.9731 6.15818 15.9731C9.23692 15.9731 11.7399 18.5449 11.7399 21.7083C11.7399 22.7588 11.4579 23.7851 10.9291 24.6665C9.94198 26.381 8.10883 27.4436 6.15818 27.4436ZM6.15818 17.7843C4.05476 17.7843 2.33912 19.5471 2.33912 21.7083C2.33912 22.4207 2.52713 23.121 2.89141 23.7247C3.58472 24.9321 4.80682 25.6324 6.15818 25.6324C7.50953 25.6324 8.73163 24.9201 9.42494 23.7368C9.78922 23.121 9.97723 22.4328 9.97723 21.7083C9.97723 19.5471 8.26159 17.7843 6.15818 17.7843Z" fill="white"/>
<path id="Vector_2" d="M5.48686 23.8093C5.26359 23.8093 5.04032 23.7248 4.86406 23.5437L3.70071 22.3483C3.35994 21.9982 3.35994 21.4185 3.70071 21.0683C4.04149 20.7182 4.60554 20.7182 4.94631 21.0683L5.51036 21.648L7.39051 19.8609C7.74304 19.5229 8.30708 19.5471 8.63611 19.9094C8.96514 20.2716 8.94163 20.8511 8.58911 21.1892L6.08615 23.5677C5.90988 23.7247 5.69837 23.8093 5.48686 23.8093Z" fill="#4AC97D"/>
<path id="Vector_3" d="M7.55664 8.19715C7.27462 8.19715 7.01611 8.06434 6.83985 7.82286C6.64008 7.54515 6.61658 7.18289 6.76934 6.88104C6.96911 6.47052 7.25113 6.07211 7.61541 5.70989L11.4345 1.77371C13.3851 -0.218516 16.5578 -0.218516 18.5085 1.77371L20.5649 3.92294C21.4345 4.80435 21.9633 5.98761 22.022 7.24332C22.0338 7.52103 21.928 7.78663 21.7282 7.96775C21.5285 8.14886 21.2582 8.23336 20.9997 8.18507C20.7647 8.14885 20.5179 8.1368 20.2594 8.1368H8.50848C8.22646 8.1368 7.95618 8.16093 7.68591 8.19715C7.65066 8.19715 7.60364 8.19715 7.55664 8.19715ZM9.51906 6.31359H20.0478C19.8951 5.90307 19.6483 5.52879 19.3193 5.19071L17.2511 3.04148C15.9938 1.76163 13.9374 1.76163 12.6683 3.04148L9.51906 6.31359Z" fill="white"/>
<path id="Vector_4" d="M20.2602 26.236H9.24955C8.87352 26.236 8.54449 25.9945 8.41523 25.6444C8.28597 25.2822 8.39173 24.8837 8.67375 24.6422C8.95577 24.4007 9.21429 24.0868 9.40231 23.7487C9.77834 23.133 9.96635 22.4327 9.96635 21.7203C9.96635 19.559 8.25072 17.7962 6.1473 17.7962C5.05446 17.7962 4.00863 18.2792 3.28007 19.1364C3.0333 19.4141 2.64552 19.5228 2.30474 19.39C1.96396 19.2572 1.72894 18.9191 1.72894 18.5448V13.2563C1.72894 9.53751 3.96162 6.84499 7.42815 6.39825C7.74543 6.34996 8.10971 6.31372 8.48574 6.31372H20.2367C20.5187 6.31372 20.883 6.32579 21.259 6.38617C24.7256 6.79669 26.9935 9.50129 26.9935 13.2563V19.2934C27.017 23.4469 24.3025 26.236 20.2602 26.236ZM11.0709 24.4249H20.2602C23.292 24.4249 25.2544 22.4085 25.2544 19.2934V13.2563C25.2544 10.431 23.6445 8.48704 21.0358 8.17311C20.7538 8.12481 20.507 8.12484 20.2602 8.12484H8.50924C8.22722 8.12484 7.95694 8.14897 7.68667 8.1852C5.10146 8.52327 3.51509 10.4551 3.51509 13.2563V16.6612C4.31415 16.2145 5.23072 15.973 6.15905 15.973C9.2378 15.973 11.7407 18.5448 11.7407 21.7082C11.7407 22.6621 11.5057 23.6039 11.0709 24.4249Z" fill="white"/>
<path id="Vector_5" d="M26.1354 19.5954H22.6101C20.824 19.5954 19.3786 18.1102 19.3786 16.275C19.3786 14.4397 20.824 12.9546 22.6101 12.9546H26.1354C26.6172 12.9546 27.0167 13.3651 27.0167 13.8601C27.0167 14.3552 26.6172 14.7657 26.1354 14.7657H22.6101C21.7993 14.7657 21.1412 15.4419 21.1412 16.275C21.1412 17.1081 21.7993 17.7842 22.6101 17.7842H26.1354C26.6172 17.7842 27.0167 18.1948 27.0167 18.6898C27.0167 19.1848 26.6172 19.5954 26.1354 19.5954Z" fill="white"/>
</g>
</g>
</svg>
