<svg width="35" height="27" viewBox="0 0 35 27" fill="none" xmlns="http://www.w3.org/2000/svg">
<g id="&#240;&#159;&#166;&#134; icon &#34;star&#34;">
<g id="Group">
<path id="Vector" d="M23.5555 1.90532L25.9044 6.60323C26.221 7.25294 27.0706 7.86933 27.7869 8.00261L32.0351 8.7023C34.7505 9.1521 35.3836 11.118 33.4344 13.0838L30.1192 16.399C29.5695 16.9487 29.253 18.0316 29.4362 18.8146L30.3858 22.9127C31.1355 26.1446 29.4029 27.4107 26.5542 25.7115L22.5726 23.3459C21.8562 22.9127 20.6568 22.9127 19.9404 23.3459L15.9589 25.7115C13.1101 27.3941 11.3775 26.1446 12.1272 22.9127L13.0767 18.8146C13.2267 18.0149 12.9101 16.9321 12.3604 16.3823L9.04519 13.0671C7.09605 11.118 7.72911 9.1521 10.4446 8.68564L14.6928 7.98595C15.4091 7.86933 16.2587 7.23628 16.5753 6.58657L18.9242 1.88866C20.207 -0.643552 22.2727 -0.643552 23.5555 1.90532Z" fill="#01264A"/>
<path id="Vector_2" d="M11.2452 2.80272H1.24963C0.566598 2.80272 0.000183105 2.23631 0.000183105 1.55328C0.000183105 0.870248 0.566598 0.303833 1.24963 0.303833H11.2452C11.9282 0.303833 12.4946 0.870248 12.4946 1.55328C12.4946 2.23631 11.9282 2.80272 11.2452 2.80272Z" fill="#01264A"/>
<path id="Vector_3" d="M6.24741 26.1258H1.24963C0.566598 26.1258 0.000183105 25.5593 0.000183105 24.8763C0.000183105 24.1933 0.566598 23.6269 1.24963 23.6269H6.24741C6.93044 23.6269 7.49685 24.1933 7.49685 24.8763C7.49685 25.5593 6.93044 26.1258 6.24741 26.1258Z" fill="#01264A"/>
<path id="Vector_4" d="M2.91555 14.4642H1.24963C0.566598 14.4642 0.000183105 13.8978 0.000183105 13.2148C0.000183105 12.5317 0.566598 11.9653 1.24963 11.9653H2.91555C3.59858 11.9653 4.165 12.5317 4.165 13.2148C4.165 13.8978 3.59858 14.4642 2.91555 14.4642Z" fill="#01264A"/>
</g>
</g>
</svg>
