<svg width="30" height="30" viewBox="0 0 30 30" fill="none" xmlns="http://www.w3.org/2000/svg">
<g id="&#240;&#159;&#166;&#134; icon &#34;message&#34;">
<g id="Group">
<path id="Vector" d="M15.3743 29.8463C14.4473 29.8463 13.5741 29.3632 12.9562 28.5212L10.9412 25.7606C10.9009 25.7054 10.7397 25.6364 10.6725 25.6226H10.0008C4.39898 25.6226 0.933105 24.0628 0.933105 16.3055V9.40399C0.933105 3.30303 4.06314 0.0869141 10.0008 0.0869141H20.7477C26.6854 0.0869141 29.8154 3.30303 29.8154 9.40399V16.3055C29.8154 22.4065 26.6854 25.6226 20.7477 25.6226H20.076C19.9686 25.6226 19.8745 25.6778 19.8074 25.7606L17.7923 28.5212C17.1744 29.3632 16.3012 29.8463 15.3743 29.8463ZM10.0008 2.15737C5.19157 2.15737 2.94815 4.46249 2.94815 9.40399V16.3055C2.94815 22.5445 5.03036 23.5521 10.0008 23.5521H10.6725C11.3576 23.5521 12.1367 23.9524 12.5532 24.5184L14.5682 27.279C15.0384 27.9139 15.7101 27.9139 16.1803 27.279L18.1953 24.5184C18.6386 23.911 19.3372 23.5521 20.076 23.5521H20.7477C25.5569 23.5521 27.8004 21.247 27.8004 16.3055V9.40399C27.8004 4.46249 25.5569 2.15737 20.7477 2.15737H10.0008Z" fill="white"/>
<path id="Vector_2" d="M15.3742 14.9252C14.6219 14.9252 14.0308 14.304 14.0308 13.5449C14.0308 12.7857 14.6353 12.1646 15.3742 12.1646C16.113 12.1646 16.7175 12.7857 16.7175 13.5449C16.7175 14.304 16.1265 14.9252 15.3742 14.9252Z" fill="#4AC97D"/>
<path id="Vector_3" d="M20.747 14.9252C19.9948 14.9252 19.4037 14.304 19.4037 13.5449C19.4037 12.7857 20.0082 12.1646 20.747 12.1646C21.4859 12.1646 22.0904 12.7857 22.0904 13.5449C22.0904 14.304 21.4993 14.9252 20.747 14.9252Z" fill="#4AC97D"/>
<path id="Vector_4" d="M10.0008 14.9252C9.24849 14.9252 8.65741 14.304 8.65741 13.5449C8.65741 12.7857 9.26192 12.1646 10.0008 12.1646C10.7396 12.1646 11.3441 12.7857 11.3441 13.5449C11.3441 14.304 10.7531 14.9252 10.0008 14.9252Z" fill="#4AC97D"/>
</g>
</g>
</svg>
