<svg width="34" height="25" viewBox="0 0 34 25" fill="none" xmlns="http://www.w3.org/2000/svg">
<g id="&#240;&#159;&#166;&#134; icon &#34;arrow right 1&#34;">
<g id="Group">
<path id="Vector" d="M21.0622 24.5939C20.7196 24.5939 20.3769 24.4676 20.1064 24.1971C19.5834 23.6741 19.5834 22.8085 20.1064 22.2855L30.0973 12.2947L20.1064 2.30385C19.5834 1.78086 19.5834 0.915227 20.1064 0.39224C20.6294 -0.130747 21.495 -0.130747 22.018 0.39224L32.9647 11.3389C33.4876 11.8619 33.4876 12.7275 32.9647 13.2505L22.018 24.1971C21.7475 24.4676 21.4048 24.5939 21.0622 24.5939Z" fill="#4AC97D"/>
<path id="Vector_2" d="M31.7039 13.6471H1.35258C0.613188 13.6471 3.05176e-05 13.034 3.05176e-05 12.2946C3.05176e-05 11.5552 0.613188 10.942 1.35258 10.942H31.7039C32.4433 10.942 33.0564 11.5552 33.0564 12.2946C33.0564 13.034 32.4433 13.6471 31.7039 13.6471Z" fill="#4AC97D"/>
</g>
</g>
</svg>
