<svg width="32" height="32" viewBox="0 0 32 32" fill="none" xmlns="http://www.w3.org/2000/svg">
<g id="&#240;&#159;&#166;&#134; icon &#34;people&#34;">
<g id="Group">
<path id="Vector" d="M24.6138 9.89224C24.5705 9.89224 24.5416 9.89224 24.4982 9.89224H24.4259C21.6938 9.80312 19.6556 7.63455 19.6556 4.96098C19.6556 2.22801 21.8239 0.0148926 24.4693 0.0148926C27.1147 0.0148926 29.283 2.24286 29.283 4.96098C29.2685 7.6494 27.2303 9.81796 24.6283 9.90707C24.6283 9.89222 24.6283 9.89224 24.6138 9.89224ZM24.4693 2.22802C23.0093 2.22802 21.8239 3.44598 21.8239 4.94615C21.8239 6.4166 22.937 7.60486 24.3681 7.66427C24.3826 7.64941 24.4982 7.64941 24.6283 7.66427C26.0305 7.59 27.1147 6.40175 27.1291 4.94615C27.1291 3.44598 25.9438 2.22802 24.4693 2.22802Z" fill="white"/>
<path id="Vector_2" d="M24.6288 20.8389C24.065 20.8389 23.5012 20.7944 22.9374 20.6904C22.3448 20.5864 21.9545 20.0072 22.0557 19.3982C22.1568 18.7892 22.7206 18.3882 23.3133 18.4921C25.0913 18.8041 26.9706 18.4626 28.2282 17.6011C28.9076 17.1407 29.269 16.5612 29.269 15.982C29.269 15.4027 28.8931 14.8383 28.2282 14.3778C26.9706 13.5163 25.0624 13.1747 23.2699 13.5015C22.6772 13.6203 22.1135 13.2044 22.0123 12.5955C21.9111 11.9866 22.3014 11.4073 22.8941 11.3033C25.2503 10.8726 27.6933 11.333 29.428 12.5212C30.7001 13.3975 31.4373 14.6452 31.4373 15.982C31.4373 17.3039 30.7145 18.5666 29.428 19.4577C28.1125 20.3489 26.4068 20.8389 24.6288 20.8389Z" fill="white"/>
<path id="Vector_3" d="M7.22444 9.89218C7.20998 9.89218 7.19553 9.89218 7.19553 9.89218C4.59352 9.80306 2.55529 7.63451 2.54083 4.96094C2.54083 2.22797 4.70917 0 7.35454 0C9.99991 0 12.1682 2.22797 12.1682 4.94609C12.1682 7.63451 10.13 9.80306 7.52801 9.89218L7.22444 8.7782L7.32563 9.89218C7.29672 9.89218 7.25335 9.89218 7.22444 9.89218ZM7.36899 7.66421C7.45573 7.66421 7.52801 7.66421 7.61474 7.67907C8.90128 7.61965 10.0288 6.4314 10.0288 4.96094C10.0288 3.46078 8.84346 2.24281 7.38345 2.24281C5.92344 2.24281 4.73808 3.46078 4.73808 4.96094C4.73808 6.41655 5.8367 7.58995 7.23889 7.67907C7.25335 7.66421 7.31117 7.66421 7.36899 7.66421Z" fill="white"/>
<path id="Vector_4" d="M7.20872 20.8389C5.43069 20.8389 3.72493 20.3489 2.40947 19.4577C1.13738 18.5814 0.400146 17.3187 0.400146 15.982C0.400146 14.66 1.13738 13.3975 2.40947 12.5212C4.14414 11.333 6.58713 10.8726 8.94339 11.3033C9.53607 11.4073 9.92637 11.9866 9.82518 12.5955C9.72399 13.2044 9.16023 13.6203 8.56755 13.5015C6.77506 13.1747 4.88137 13.5163 3.60928 14.3778C2.92987 14.8383 2.56848 15.4027 2.56848 15.982C2.56848 16.5612 2.94433 17.1407 3.60928 17.6011C4.86692 18.4626 6.74614 18.8041 8.52418 18.4921C9.11686 18.3882 9.68063 18.8041 9.78181 19.3982C9.883 20.0072 9.4927 20.5864 8.90003 20.6904C8.33626 20.7944 7.77249 20.8389 7.20872 20.8389Z" fill="white"/>
<path id="Vector_5" d="M15.9405 20.9875C15.8971 20.9875 15.8682 20.9875 15.8248 20.9875H15.7526C13.0205 20.8983 10.9822 18.7298 10.9822 16.0562C10.9822 13.3233 13.1506 11.1101 15.7959 11.1101C18.4413 11.1101 20.6096 13.3381 20.6096 16.0562C20.5952 18.7446 18.5569 20.9132 15.9549 21.0023C15.9549 20.9875 15.9549 20.9875 15.9405 20.9875ZM15.7959 13.3233C14.3359 13.3233 13.1506 14.5412 13.1506 16.0414C13.1506 17.5118 14.2636 18.7001 15.6947 18.7595C15.7092 18.7446 15.8248 18.7446 15.9549 18.7595C17.3571 18.6852 18.4413 17.497 18.4558 16.0414C18.4558 14.5561 17.2704 13.3233 15.7959 13.3233Z" fill="#4AC97D"/>
<path id="Vector_6" d="M15.9392 31.9491C14.2045 31.9491 12.4698 31.4886 11.1255 30.5529C9.85338 29.6765 9.11615 28.4289 9.11615 27.0921C9.11615 25.7702 9.83893 24.4928 11.1255 23.6164C13.8287 21.7747 18.0641 21.7747 20.7529 23.6164C22.025 24.4928 22.7622 25.7404 22.7622 27.0772C22.7622 28.3992 22.0394 29.6765 20.7529 30.5529C19.4085 31.4738 17.6738 31.9491 15.9392 31.9491ZM12.3253 25.4879C11.6459 25.9484 11.2845 26.5277 11.2845 27.1069C11.2845 27.6862 11.6603 28.2506 12.3253 28.7111C14.2768 30.0627 17.5871 30.0627 19.5386 28.7111C20.218 28.2506 20.5794 27.6714 20.5794 27.0921C20.5794 26.5128 20.2036 25.9484 19.5386 25.4879C17.6016 24.1363 14.2912 24.1512 12.3253 25.4879Z" fill="#4AC97D"/>
</g>
</g>
</svg>
