<svg width="206" height="37" viewBox="0 0 206 37" fill="none" xmlns="http://www.w3.org/2000/svg">
<rect width="206" height="37" fill="#E6DEDE"/>
<rect width="1512" height="4022" transform="translate(-88 -2740)" fill="white"/>
<rect width="36.6365" height="36.6365" fill="#00B87C"/>
<path d="M30.7402 15.5878L21.2823 15.5878L18.3708 6.59509L15.4421 15.5878L5.98425 15.5706L13.6333 21.1351L10.7046 30.1278L18.3536 24.5634L26.0026 30.1278L23.0912 21.1351L30.7402 15.5878Z" fill="#FDFEFE"/>
<path d="M23.7461 23.1672L23.0915 21.1343L18.3712 24.5626L23.7461 23.1672Z" fill="#4BBD97"/>
<rect x="42.1323" width="36.6365" height="36.6365" fill="#00B87C"/>
<path d="M72.872 15.5878L63.4141 15.5878L60.5027 6.59509L57.574 15.5878L48.1161 15.5706L55.7651 21.1351L52.8364 30.1278L60.4854 24.5634L68.1344 30.1278L65.223 21.1351L72.872 15.5878Z" fill="#FDFEFE"/>
<path d="M65.878 23.1672L65.2233 21.1343L60.503 24.5626L65.878 23.1672Z" fill="#4BBD97"/>
<rect x="84.2642" width="36.6365" height="36.6365" fill="#00B87C"/>
<path d="M115.004 15.5878L105.546 15.5878L102.635 6.59509L99.7059 15.5878L90.248 15.5706L97.897 21.1351L94.9683 30.1278L102.617 24.5634L110.266 30.1278L107.355 21.1351L115.004 15.5878Z" fill="#FDFEFE"/>
<path d="M108.01 23.1672L107.355 21.1343L102.635 24.5626L108.01 23.1672Z" fill="#4BBD97"/>
<rect x="126.396" width="36.6365" height="36.6365" fill="#00B87C"/>
<path d="M157.136 15.5878L147.678 15.5878L144.766 6.59509L141.838 15.5878L132.38 15.5706L140.029 21.1351L137.1 30.1278L144.749 24.5634L152.398 30.1278L149.487 21.1351L157.136 15.5878Z" fill="#FDFEFE"/>
<path d="M150.142 23.1672L149.487 21.1343L144.767 24.5626L150.142 23.1672Z" fill="#4BBD97"/>
<rect x="168.528" width="36.6365" height="36.6365" fill="#00B87C"/>
<path d="M199.268 15.5878L189.81 15.5878L186.899 6.59509L183.97 15.5878L174.512 15.5706L182.161 21.1351L179.233 30.1278L186.882 24.5634L194.531 30.1278L191.619 21.1351L199.268 15.5878Z" fill="#FDFEFE"/>
<path d="M192.274 23.1672L191.619 21.1343L186.899 24.5626L192.274 23.1672Z" fill="#4BBD97"/>
</svg>
