<svg width="27" height="28" viewBox="0 0 27 28" fill="none" xmlns="http://www.w3.org/2000/svg">
<g id="&#240;&#159;&#166;&#134; icon &#34;medal star&#34;">
<g id="Group">
<path id="Vector" d="M13.4931 20.3508C13.0005 20.3508 12.5078 20.3129 12.0398 20.2243C9.42869 19.832 7.05162 18.288 5.54901 15.9975C4.50212 14.3776 3.94788 12.492 3.94788 10.5431C3.94788 5.13934 8.23399 0.735352 13.4931 0.735352C18.7522 0.735352 23.0383 5.13934 23.0383 10.5431C23.0383 12.492 22.4841 14.3776 21.4372 15.9975C19.9223 18.3007 17.5452 19.832 14.9095 20.2369C14.4784 20.3129 13.9858 20.3508 13.4931 20.3508ZM13.4931 2.63362C9.24394 2.63362 5.79534 6.17707 5.79534 10.5431C5.79534 12.125 6.23873 13.6436 7.07625 14.9344C8.29558 16.7821 10.2046 18.0223 12.323 18.3387C13.1113 18.4779 13.8872 18.4779 14.6139 18.3387C16.7693 18.0223 18.6783 16.7694 19.8977 14.9218C20.7352 13.6309 21.1786 12.1123 21.1786 10.5304C21.1909 6.17705 17.7423 2.63362 13.4931 2.63362Z" fill="white"/>
<path id="Vector_2" d="M6.68081 27.7415C6.50838 27.7415 6.34827 27.7162 6.17584 27.6782C5.37527 27.4884 4.75945 26.8556 4.5747 26.033L4.14363 24.1727C4.119 24.0588 4.03278 23.9702 3.90962 23.9323L1.87741 23.4387C1.11379 23.2489 0.510283 22.6668 0.300903 21.8948C0.091524 21.1228 0.300903 20.2876 0.855143 19.7181L5.65855 14.7826C5.85561 14.5801 6.12657 14.4789 6.39754 14.5042C6.6685 14.5295 6.91483 14.6814 7.07494 14.9218C8.29427 16.7695 10.2033 18.0223 12.334 18.3387C13.1223 18.4779 13.8982 18.4779 14.6249 18.3387C16.7802 18.0223 18.6893 16.7695 19.9086 14.9218C20.0564 14.6814 20.3151 14.5295 20.586 14.5042C20.857 14.4789 21.1279 14.5801 21.325 14.7826L26.1284 19.7181C26.6827 20.2876 26.892 21.1228 26.6827 21.8948C26.4733 22.6668 25.8575 23.2616 25.1062 23.4387L23.0739 23.9323C22.9631 23.9576 22.8769 24.0462 22.8399 24.1727L22.4089 26.033C22.2241 26.8556 21.6083 27.4884 20.8077 27.6782C20.0072 27.8807 19.182 27.5896 18.6647 26.9442L13.4918 20.8318L8.3189 26.9569C7.90014 27.4631 7.30895 27.7415 6.68081 27.7415ZM6.21279 16.9087L2.16068 21.0722C2.04984 21.1861 2.06215 21.3127 2.08679 21.3886C2.0991 21.4519 2.16068 21.5784 2.30848 21.6037L4.34069 22.0973C5.14126 22.2871 5.75708 22.9199 5.94183 23.7424L6.3729 25.6028C6.40985 25.7673 6.53302 25.8179 6.60691 25.8432C6.68081 25.8559 6.80398 25.8685 6.91483 25.742L11.632 20.161C9.53822 19.7434 7.61686 18.5918 6.21279 16.9087ZM15.3515 20.1484L20.0687 25.7167C20.1796 25.8559 20.3151 25.8559 20.389 25.8305C20.4629 25.8179 20.5737 25.7546 20.623 25.5901L21.054 23.7298C21.2388 22.9072 21.8546 22.2745 22.6552 22.0846L24.6874 21.5911C24.8352 21.5531 24.8968 21.4392 24.9091 21.3759C24.9337 21.3127 24.946 21.1735 24.8352 21.0596L20.7831 16.896C19.3667 18.5791 17.4577 19.7308 15.3515 20.1484Z" fill="white"/>
<path id="Vector_3" d="M15.8219 15.4661C15.5017 15.4661 15.1198 15.3775 14.6641 15.0991L13.4941 14.3777L12.324 15.0864C11.2525 15.7445 10.5505 15.3648 10.2918 15.175C10.0332 14.9852 9.47894 14.4157 9.76222 13.1628L10.0578 11.8593L9.0725 10.9228C8.53058 10.366 8.33351 9.69532 8.51826 9.08788C8.70301 8.48043 9.24493 8.05013 10.0085 7.92358L11.3264 7.6958L11.9545 6.27842C12.3117 5.55708 12.8659 5.1521 13.4941 5.1521C14.1222 5.1521 14.6888 5.56974 15.0336 6.29109L15.7603 7.7844L16.9796 7.93625C17.7309 8.0628 18.2728 8.49306 18.4699 9.10051C18.6547 9.70795 18.4576 10.3787 17.9157 10.9355L16.8934 11.9859L17.2136 13.1628C17.4969 14.4157 16.9427 14.9852 16.684 15.175C16.5485 15.2889 16.253 15.4661 15.8219 15.4661ZM10.5505 9.77125L11.4003 10.6444C11.7944 11.0494 11.9915 11.7328 11.8683 12.2896L11.6343 13.302L12.6196 12.7072C13.1492 12.3909 13.8636 12.3909 14.3809 12.7072L15.3662 13.302L15.1445 12.2896C15.0213 11.7201 15.2061 11.0494 15.6002 10.6444L16.45 9.77125L15.3785 9.5814C14.8612 9.49282 14.3439 9.10053 14.1099 8.61964L13.4941 7.37942L12.8783 8.64493C12.6566 9.11317 12.1393 9.51815 11.622 9.60674L10.5505 9.77125Z" fill="#4AC97D"/>
</g>
</g>
</svg>
