<svg width="31" height="32" viewBox="0 0 31 32" fill="none" xmlns="http://www.w3.org/2000/svg">
<g id="&#240;&#159;&#166;&#134; icon &#34;clock&#34;">
<g id="Group">
<path id="Vector" d="M15.2691 31.9206C6.84626 31.9206 0 24.8861 0 16.2315C0 7.57702 6.84626 0.54248 15.2691 0.54248C23.692 0.54248 30.5383 7.57702 30.5383 16.2315C30.5383 24.8861 23.692 31.9206 15.2691 31.9206ZM15.2691 2.73165C8.02518 2.73165 2.13058 8.78836 2.13058 16.2315C2.13058 23.6747 8.02518 29.7314 15.2691 29.7314C22.5131 29.7314 28.4077 23.6747 28.4077 16.2315C28.4077 8.78836 22.5131 2.73165 15.2691 2.73165Z" fill="white"/>
<path id="Vector_2" d="M20.5383 21.9671C20.3537 21.9671 20.169 21.9233 19.9986 21.8066L15.5954 19.1066C14.5017 18.4352 13.6921 16.9612 13.6921 15.6623V9.67857C13.6921 9.0802 14.175 8.58398 14.7574 8.58398C15.3397 8.58398 15.8227 9.0802 15.8227 9.67857V15.6623C15.8227 16.1877 16.2488 16.9612 16.6891 17.2239L21.0923 19.9239C21.6036 20.2304 21.7599 20.9017 21.4616 21.4271C21.2485 21.7774 20.8934 21.9671 20.5383 21.9671Z" fill="#4AC97D"/>
</g>
</g>
</svg>
