<svg width="29" height="26" viewBox="0 0 29 26" fill="none" xmlns="http://www.w3.org/2000/svg">
<g id="&#240;&#159;&#166;&#134; icon &#34;lovely&#34;">
<g id="Group">
<path id="Vector" d="M13.2562 23.4403C12.8759 23.4403 12.5088 23.3864 12.2072 23.2651C7.72282 21.6888 0.57666 16.0572 0.57666 7.73094C0.57666 3.46006 3.93337 -0.00244141 8.06372 -0.00244141C10.0437 -0.00244141 11.8925 0.778955 13.2693 2.16666C14.6592 0.778955 16.4949 -0.00244141 18.4748 -0.00244141C22.6052 -0.00244141 25.9619 3.46006 25.9619 7.73094C25.9619 8.31028 25.9226 8.90309 25.8439 9.50937C25.8046 9.81924 25.621 10.1022 25.3587 10.2638C25.0965 10.4255 24.7687 10.439 24.4802 10.3177C22.8674 9.60368 20.8613 10.1426 19.8123 11.5842C19.6287 11.8402 19.2747 11.9749 19.0255 11.9884C18.7108 11.9884 18.4224 11.8402 18.2388 11.5842C17.4914 10.5603 16.3507 9.98092 15.1181 9.98092C12.9808 9.98092 11.2369 11.7863 11.2369 14.0093C11.2369 17.5122 13.1906 20.0047 14.8427 21.5002C15.0788 21.7157 15.1968 22.0256 15.1706 22.349C15.1443 22.6723 14.9739 22.9552 14.6985 23.1304C14.5543 23.2112 14.4363 23.2651 14.3707 23.2786C14.0298 23.3864 13.6495 23.4403 13.2562 23.4403ZM8.06372 2.01848C5.02169 2.01848 2.54349 4.5783 2.54349 7.73094C2.54349 14.7772 8.24732 19.1155 11.5254 20.7861C10.2797 19.0751 9.25694 16.8116 9.25694 13.9958C9.25694 10.6546 11.8794 7.94651 15.105 7.94651C16.5736 7.94651 17.9503 8.49892 19.0124 9.48244C20.3368 8.26988 22.2249 7.71746 23.982 8.05428C23.982 7.9465 23.982 7.83874 23.982 7.74443C23.982 4.59179 21.5037 2.03193 18.4617 2.03193C16.7178 2.03193 15.105 2.86724 14.0429 4.30883C13.8593 4.56482 13.5709 4.71305 13.2562 4.71305C12.9415 4.71305 12.653 4.56482 12.4694 4.30883C11.4336 2.85377 9.82076 2.01848 8.06372 2.01848Z" fill="white"/>
<path id="Vector_2" d="M19.0263 25.9999C18.7248 25.9999 18.4101 25.9594 18.1609 25.8651C17.0333 25.4744 15.2107 24.5179 13.5454 22.9954C11.6049 21.2305 9.284 18.2395 9.284 13.9956C9.284 10.6543 11.9064 7.94629 15.132 7.94629C16.6006 7.94629 17.9774 8.49869 19.0395 9.4822C20.6916 7.95978 23.2091 7.52863 25.2809 8.45826C27.405 9.4283 28.7818 11.6109 28.7818 14.0091C28.7818 20.3952 23.3272 24.6795 19.8918 25.8786C19.6295 25.9594 19.3279 25.9999 19.0263 25.9999ZM15.1189 9.96721C12.9816 9.96721 11.2377 11.7726 11.2377 13.9956C11.2377 17.4985 13.1914 19.991 14.8435 21.4865C16.299 22.8068 17.8331 23.6286 18.7903 23.952C18.8952 23.9924 19.1444 23.9924 19.2361 23.952C21.203 23.2649 26.8019 19.964 26.8019 13.9956C26.8019 12.3923 25.884 10.9373 24.481 10.304C22.8944 9.58997 20.8621 10.1289 19.8131 11.5705C19.6295 11.8265 19.2755 11.9612 19.0263 11.9747C18.7116 11.9747 18.4232 11.8265 18.2396 11.5705C17.4922 10.5465 16.3515 9.96721 15.1189 9.96721Z" fill="#4AC97D"/>
</g>
</g>
</svg>
