<svg width="32" height="35" viewBox="0 0 32 35" fill="none" xmlns="http://www.w3.org/2000/svg">
<g id="&#240;&#159;&#166;&#134; icon &#34;forward 10 seconds&#34;">
<g id="Group">
<path id="Vector" d="M19.1187 5.94436L16.0006 2.05469" stroke="white" stroke-width="2.34791" stroke-linecap="round" stroke-linejoin="round"/>
<path id="Vector_2" d="M28.6139 25.6128C26.362 30.3056 21.5589 33.5497 15.9999 33.5497C8.26767 33.5497 2 27.282 2 19.5498C2 11.8176 8.26767 5.54993 15.9999 5.54993C17.0707 5.54993 18.1101 5.69174 19.118 5.92795" stroke="white" stroke-width="2.34791" stroke-linecap="round" stroke-linejoin="round"/>
<path id="Vector_3" d="M27.1658 11.1885C28.9138 13.5192 30.0005 16.4009 30.0005 19.5505" stroke="#4AC97D" stroke-width="2.34791" stroke-linecap="round" stroke-linejoin="round"/>
<path id="Vector_4" d="M12.1259 23.9757V15.5665L9.76367 18.1964" stroke="white" stroke-width="2.34791" stroke-linecap="round" stroke-linejoin="round"/>
<path id="Vector_5" d="M19.1502 15.5665C20.8824 15.5665 22.2998 16.9838 22.2998 18.7161V20.8421C22.2998 22.5743 20.8824 23.9916 19.1502 23.9916C17.4179 23.9916 16.0006 22.5743 16.0006 20.8421V18.7161C16.0006 16.9681 17.4179 15.5665 19.1502 15.5665Z" stroke="white" stroke-width="2.34791" stroke-linecap="round" stroke-linejoin="round"/>
</g>
</g>
</svg>
